<svg xmlns="http://www.w3.org/2000/svg" viewBox="0 0 32 32">
  <defs>
    <linearGradient id="j" x1="0" y1="0" x2="0.2" y2="1">
      <stop offset="0%" stop-color="#7dd3fc"/>
      <stop offset="100%" stop-color="#0ea5e9"/>
    </linearGradient>
  </defs>
  <rect width="32" height="32" rx="7" fill="#292524"/>
  <path d="M11 7 H22 Q23.5 7 23.5 8.5 Q23.5 10 22 10 L19.5 10 L19.5 21.5 Q19.5 26 15 26 L13 26 Q9 26 8 23 L7.5 21.5 Q7 20 8.5 19.5 Q10 19 10.5 20.5 L11 22 Q11.5 23.5 13.5 23.5 L14.5 23.5 Q16.5 23.5 16.5 21.5 L16.5 10 H11 Q9.5 10 9.5 8.5 Q9.5 7 11 7Z" fill="url(#j)"/>
</svg>
